<svg width="64" height="64" viewBox="0 0 64 64" fill="none" xmlns="http://www.w3.org/2000/svg">
<path d="M45.4696 5.38098C43.7066 2.69049 42.9308 7.34282e-05 39.7574 0C36.2504 -8.11423e-05 35.9493 3.76668 32.7758 9.68576C31.0875 12.8347 28.333 17.7572 24.5249 23.6763C20.7168 29.5954 18.4034 36.0525 17.5433 39.8192C16.6833 43.5859 16.9684 46.5917 17.5433 48.9669C18.422 52.5974 20.1882 54.9043 21.9861 57.0384C23.7297 59.1079 28.7084 62.1721 34.6799 63.4955C39.5768 64.5808 45.2742 63.6848 49.2777 62.9574C53.6999 62.154 57.1629 59.6334 59.6123 56.5003C62.0846 53.3378 63.5244 49.5512 63.8755 46.2764C64.5102 40.3573 62.6061 37.2633 60.7021 32.824C59.7991 30.7188 56.7236 25.044 53.5511 19.3715C50.0334 13.0821 46.3965 6.79561 45.4696 5.38098Z" fill="#4EC1F5"/>
<rect x="7" y="30" width="41" height="23" rx="4" fill="#F15642"/>
</svg>
