<svg width="64" height="64" viewBox="0 0 64 64" fill="none" xmlns="http://www.w3.org/2000/svg">
<path d="M40.0338 7.08408C38.6074 4.54204 37.9797 2.00007 35.4122 2C32.5749 1.99992 32.3312 5.55885 29.7637 11.1513C28.3977 14.1266 26.1692 18.7775 23.0881 24.3699C20.0071 29.9624 18.1354 36.0633 17.4396 39.6222C16.7437 43.181 16.9745 46.0209 17.4396 48.2651C18.1505 51.6953 19.5795 53.8749 21.0341 55.8912C22.4448 57.8466 26.4728 60.7417 31.3042 61.9921C35.2661 63.0175 39.8757 62.1709 43.1148 61.4837C46.6926 60.7246 49.4944 58.3431 51.4762 55.3828C53.4764 52.3948 54.6413 48.8172 54.9254 45.7231C55.4389 40.1306 53.8984 37.2072 52.3578 33.0129C51.6273 31.0239 49.139 25.6621 46.5722 20.3027C43.7262 14.3603 40.7837 8.42065 40.0338 7.08408Z" fill="#4EC1F5"/>
<rect x="10" y="32" width="33" height="18" rx="4" fill="#F15642"/>
<path d="M16.038 37.376V40.75C16.038 40.8153 16.0753 40.8573 16.15 40.876C16.5047 40.9227 16.85 40.946 17.186 40.946C17.942 40.946 18.516 40.7827 18.908 40.456C19.3093 40.12 19.51 39.644 19.51 39.028C19.51 37.7867 18.7353 37.166 17.186 37.166C16.85 37.166 16.5047 37.1893 16.15 37.236C16.0753 37.2547 16.038 37.3013 16.038 37.376ZM14.89 46C14.6753 46 14.4887 45.9207 14.33 45.762C14.1807 45.6033 14.106 45.4167 14.106 45.202V36.648C14.106 36.424 14.1807 36.2233 14.33 36.046C14.4793 35.8687 14.666 35.7707 14.89 35.752C15.6833 35.6773 16.4487 35.64 17.186 35.64C18.586 35.64 19.636 35.92 20.336 36.48C21.036 37.0307 21.386 37.8333 21.386 38.888C21.386 40.0547 21.0453 40.9367 20.364 41.534C19.692 42.1313 18.6933 42.43 17.368 42.43C17.06 42.43 16.654 42.4113 16.15 42.374C16.0753 42.374 16.038 42.4113 16.038 42.486V45.202C16.038 45.4167 15.9587 45.6033 15.8 45.762C15.6413 45.9207 15.4547 46 15.24 46H14.89ZM24.983 37.404V44.376C24.983 44.4413 25.0203 44.4833 25.095 44.502C25.3937 44.5487 25.6737 44.572 25.935 44.572C27.027 44.572 27.8297 44.278 28.343 43.69C28.8563 43.0927 29.113 42.1127 29.113 40.75C29.113 39.5273 28.8517 38.6313 28.329 38.062C27.8063 37.4927 27.0083 37.208 25.935 37.208C25.6737 37.208 25.3937 37.2313 25.095 37.278C25.0203 37.2967 24.983 37.3387 24.983 37.404ZM23.835 46.042C23.6017 46.014 23.4103 45.916 23.261 45.748C23.1117 45.5707 23.037 45.3653 23.037 45.132V36.648C23.037 36.4147 23.1117 36.214 23.261 36.046C23.4103 35.8687 23.6017 35.766 23.835 35.738C24.4323 35.6727 25.0997 35.64 25.837 35.64C27.4983 35.64 28.7677 36.074 29.645 36.942C30.5317 37.81 30.975 39.0793 30.975 40.75C30.975 42.542 30.5317 43.8907 29.645 44.796C28.7677 45.692 27.4983 46.14 25.837 46.14C25.0997 46.14 24.4323 46.1073 23.835 46.042ZM33.4766 46C33.262 46 33.0753 45.9207 32.9166 45.762C32.7673 45.6033 32.6926 45.4167 32.6926 45.202V36.578C32.6926 36.3633 32.7673 36.1767 32.9166 36.018C33.0753 35.8593 33.262 35.78 33.4766 35.78H38.0966C38.3113 35.78 38.498 35.8593 38.6566 36.018C38.8153 36.1767 38.8946 36.3633 38.8946 36.578C38.8946 36.7927 38.8153 36.9793 38.6566 37.138C38.498 37.2873 38.3113 37.362 38.0966 37.362H34.7646C34.69 37.362 34.6526 37.404 34.6526 37.488V39.938C34.6526 40.0127 34.69 40.05 34.7646 40.05H37.8586C38.064 40.05 38.2413 40.1247 38.3906 40.274C38.54 40.414 38.6146 40.5913 38.6146 40.806C38.6146 41.0207 38.54 41.2027 38.3906 41.352C38.2413 41.492 38.064 41.562 37.8586 41.562H34.7646C34.69 41.562 34.6526 41.5993 34.6526 41.674V45.202C34.6526 45.4167 34.5733 45.6033 34.4146 45.762C34.256 45.9207 34.0693 46 33.8546 46H33.4766Z" fill="white"/>
</svg>
