<svg width="64" height="64" viewBox="0 0 64 64" fill="none" xmlns="http://www.w3.org/2000/svg">
<path d="M45.6524 5.38098C44.0019 2.69049 43.2757 7.34282e-05 40.3048 0C37.0217 -8.11423e-05 36.7397 3.76668 33.7689 9.68576C32.1883 12.8347 29.6096 17.7572 26.0446 23.6763C22.4795 29.5954 20.3138 36.0525 19.5086 39.8192C18.7035 43.5859 18.9704 46.5917 19.5086 48.9669C20.3313 52.5974 21.9847 54.9043 23.6679 57.0384C25.3002 59.1079 29.961 62.1721 35.5514 63.4955C40.1357 64.5808 45.4694 63.6848 49.2174 62.9574C53.3573 62.154 56.5993 59.6334 58.8924 56.5003C61.2069 53.3378 62.5547 49.5512 62.8835 46.2764C63.4776 40.3573 61.6951 37.2633 59.9126 32.824C59.0673 30.7188 56.1881 25.044 53.218 19.3715C49.9249 13.0821 46.5202 6.79561 45.6524 5.38098Z" fill="#4EC1F5"/>
<rect x="2" y="24" width="52" height="31" rx="4" fill="#F15642"/>
<path d="M10.208 34.216V40C10.208 40.112 10.272 40.184 10.4 40.216C11.008 40.296 11.6 40.336 12.176 40.336C13.472 40.336 14.456 40.056 15.128 39.496C15.816 38.92 16.16 38.104 16.16 37.048C16.16 34.92 14.832 33.856 12.176 33.856C11.6 33.856 11.008 33.896 10.4 33.976C10.272 34.008 10.208 34.088 10.208 34.216ZM8.24 49C7.872 49 7.552 48.864 7.28 48.592C7.024 48.32 6.896 48 6.896 47.632V32.968C6.896 32.584 7.024 32.24 7.28 31.936C7.536 31.632 7.856 31.464 8.24 31.432C9.6 31.304 10.912 31.24 12.176 31.24C14.576 31.24 16.376 31.72 17.576 32.68C18.776 33.624 19.376 35 19.376 36.808C19.376 38.808 18.792 40.32 17.624 41.344C16.472 42.368 14.76 42.88 12.488 42.88C11.96 42.88 11.264 42.848 10.4 42.784C10.272 42.784 10.208 42.848 10.208 42.976V47.632C10.208 48 10.072 48.32 9.8 48.592C9.528 48.864 9.208 49 8.84 49H8.24ZM25.5423 34.264V46.216C25.5423 46.328 25.6063 46.4 25.7343 46.432C26.2463 46.512 26.7263 46.552 27.1743 46.552C29.0463 46.552 30.4223 46.048 31.3023 45.04C32.1823 44.016 32.6223 42.336 32.6223 40C32.6223 37.904 32.1743 36.368 31.2783 35.392C30.3823 34.416 29.0143 33.928 27.1743 33.928C26.7263 33.928 26.2463 33.968 25.7343 34.048C25.6063 34.08 25.5423 34.152 25.5423 34.264ZM23.5743 49.072C23.1743 49.024 22.8463 48.856 22.5903 48.568C22.3343 48.264 22.2063 47.912 22.2063 47.512V32.968C22.2063 32.568 22.3343 32.224 22.5903 31.936C22.8463 31.632 23.1743 31.456 23.5743 31.408C24.5983 31.296 25.7423 31.24 27.0063 31.24C29.8543 31.24 32.0303 31.984 33.5343 33.472C35.0543 34.96 35.8143 37.136 35.8143 40C35.8143 43.072 35.0543 45.384 33.5343 46.936C32.0303 48.472 29.8543 49.24 27.0063 49.24C25.7423 49.24 24.5983 49.184 23.5743 49.072ZM40.1028 49C39.7348 49 39.4148 48.864 39.1428 48.592C38.8868 48.32 38.7588 48 38.7588 47.632V32.848C38.7588 32.48 38.8868 32.16 39.1428 31.888C39.4148 31.616 39.7348 31.48 40.1028 31.48H48.0228C48.3908 31.48 48.7108 31.616 48.9828 31.888C49.2548 32.16 49.3908 32.48 49.3908 32.848C49.3908 33.216 49.2548 33.536 48.9828 33.808C48.7108 34.064 48.3908 34.192 48.0228 34.192H42.3108C42.1828 34.192 42.1188 34.264 42.1188 34.408V38.608C42.1188 38.736 42.1828 38.8 42.3108 38.8H47.6148C47.9668 38.8 48.2708 38.928 48.5268 39.184C48.7828 39.424 48.9108 39.728 48.9108 40.096C48.9108 40.464 48.7828 40.776 48.5268 41.032C48.2708 41.272 47.9668 41.392 47.6148 41.392H42.3108C42.1828 41.392 42.1188 41.456 42.1188 41.584V47.632C42.1188 48 41.9828 48.32 41.7108 48.592C41.4388 48.864 41.1188 49 40.7508 49H40.1028Z" fill="white"/>
</svg>
